<svg width="200" height="200" viewBox="0 0 200 200" fill="none" xmlns="http://www.w3.org/2000/svg">
  <path d="M50 40C50 17.9086 67.9086 0 90 0H200V200H0V90C0 67.9086 17.9086 50 40 50H50V40Z" fill="white" fill-opacity="0.1"/>
  <path d="M109.5 65C103.149 65 98 70.1487 98 76.5C98 82.8513 103.149 88 109.5 88C115.851 88 121 82.8513 121 76.5C121 70.1487 115.851 65 109.5 65ZM109.5 85.5C104.528 85.5 100.5 81.4725 100.5 76.5C100.5 71.5275 104.528 67.5 109.5 67.5C114.472 67.5 118.5 71.5275 118.5 76.5C118.5 81.4725 114.472 85.5 109.5 85.5Z" fill="white"/>
  <path d="M147 89.25H144.5V97.5C144.5 98.1904 143.94 98.75 143.25 98.75H143H109.5H109.25C108.56 98.75 108 98.1904 108 97.5V89.25H72C71.3096 89.25 70.75 89.8096 70.75 90.5V139.75C70.75 140.44 71.3096 141 72 141H147C147.69 141 148.25 140.44 148.25 139.75V90.5C148.25 89.8096 147.69 89.25 147 89.25ZM145.75 138.5H73.25V91.75H105.5V97.5C105.5 99.5716 107.178 101.25 109.25 101.25H109.5H143H143.25C145.322 101.25 147 99.5716 147 97.5V91.75H145.75V138.5Z" fill="white"/>
  <path d="M130.25 108.75H88.75C88.0596 108.75 87.5 109.31 87.5 110C87.5 110.69 88.0596 111.25 88.75 111.25H130.25C130.94 111.25 131.5 110.69 131.5 110C131.5 109.31 130.94 108.75 130.25 108.75Z" fill="white"/>
  <path d="M130.25 118.75H88.75C88.0596 118.75 87.5 119.31 87.5 120C87.5 120.69 88.0596 121.25 88.75 121.25H130.25C130.94 121.25 131.5 120.69 131.5 120C131.5 119.31 130.94 118.75 130.25 118.75Z" fill="white"/>
  <path d="M130.25 128.75H88.75C88.0596 128.75 87.5 129.31 87.5 130C87.5 130.69 88.0596 131.25 88.75 131.25H130.25C130.94 131.25 131.5 130.69 131.5 130C131.5 129.31 130.94 128.75 130.25 128.75Z" fill="white"/>
  <circle cx="160" cy="40" r="25" fill="white" fill-opacity="0.1"/>
  <circle cx="40" cy="160" r="30" fill="white" fill-opacity="0.1"/>
</svg> 