<svg width="32" height="33" viewBox="0 0 32 33" fill="none" xmlns="http://www.w3.org/2000/svg">
<path d="M17.3346 10.6738H6.66797C5.6071 10.6738 4.58969 11.0953 3.83954 11.8454C3.0894 12.5955 2.66797 13.613 2.66797 14.6738V25.3405C2.66797 26.4014 3.0894 27.4188 3.83954 28.1689C4.58969 28.9191 5.6071 29.3405 6.66797 29.3405H17.3346C18.3955 29.3405 19.4129 28.9191 20.1631 28.1689C20.9132 27.4188 21.3346 26.4014 21.3346 25.3405V14.6738C21.3346 13.613 20.9132 12.5955 20.1631 11.8454C19.4129 11.0953 18.3955 10.6738 17.3346 10.6738ZM25.3346 2.67383H14.668C13.6071 2.67383 12.5897 3.09526 11.8395 3.8454C11.0894 4.59555 10.668 5.61296 10.668 6.67383V8.00716H17.3346C19.1027 8.00716 20.7984 8.70954 22.0487 9.95978C23.2989 11.21 24.0013 12.9057 24.0013 14.6738V21.3405H25.3346C26.3955 21.3405 27.4129 20.9191 28.1631 20.1689C28.9132 19.4188 29.3346 18.4014 29.3346 17.3405V6.67383C29.3346 5.61296 28.9132 4.59555 28.1631 3.8454C27.4129 3.09526 26.3955 2.67383 25.3346 2.67383Z" fill="#0C5273"/>
</svg>
